HIERARCHY
ROOT hip
{
	OFFSET 0.000000 0.000000 0.000000 
	CHANNELS 6 Xposition Yposition Zposition Xrotation Zrotation Yrotation
	JOINT abdomen
	{
		OFFSET 0.000000 3.402643 0.000000 
		CHANNELS 3 Xrotation Zrotation Yrotation
		JOINT chest
		{
			OFFSET 0.000000 8.438565 -0.680529 
			CHANNELS 3 Xrotation Zrotation Yrotation
			JOINT neck
			{
				OFFSET 0.000000 9.885400 -0.272212 
				CHANNELS 3 Xrotation Zrotation Yrotation
				JOINT head
				{
					OFFSET 0.000000 3.130431 0.000000 
					CHANNELS 3 Xrotation Zrotation Yrotation
					End Site
					{
						OFFSET 0.000000 3.039250 0.000000 
					}
				}
			}
			JOINT lCollar
			{
				OFFSET 3.238290 6.669187 -0.816635 
				CHANNELS 3 Yrotation Zrotation Xrotation
				JOINT lShldr
				{
					OFFSET 2.515050 0.000000 0.000000 
					CHANNELS 3 Zrotation Yrotation Xrotation
					JOINT lForeArm
					{
						OFFSET 11.517700 0.000000 0.000000 
						CHANNELS 3 Yrotation Zrotation Xrotation
						JOINT lHand
						{
							OFFSET 9.026700 0.000000 0.000000 
							CHANNELS 3 Zrotation Yrotation Xrotation
							End Site
							{
								OFFSET 4.028470 0.000000 0.000000 
							}
						}
					}
				}
			}
			JOINT rCollar
			{
				OFFSET -3.238290 6.669187 -0.816635 
				CHANNELS 3 Yrotation Zrotation Xrotation
				JOINT rShldr
				{
					OFFSET -2.515050 0.000000 0.000000 
					CHANNELS 3 Zrotation Yrotation Xrotation
					JOINT rForeArm
					{
						OFFSET -11.517700 0.000000 0.000000 
						CHANNELS 3 Yrotation Zrotation Xrotation
						JOINT rHand
						{
							OFFSET -9.026700 0.000000 0.000000 
							CHANNELS 3 Zrotation Yrotation Xrotation
							End Site
							{
								OFFSET -4.028470 0.000000 0.000000 
							}
						}
					}
				}
			}
		}
	}
	JOINT lThigh
	{
		OFFSET 4.983750 -1.633274 1.361059 
		CHANNELS 3 Xrotation Zrotation Yrotation
		JOINT lShin
		{
			OFFSET -2.041588 -20.007561 0.000000 
			CHANNELS 3 Xrotation Zrotation Yrotation
			JOINT lFoot
			{
				OFFSET 0.000000 -19.190928 -1.224953 
				CHANNELS 3 Xrotation Yrotation Zrotation
				End Site
				{
					OFFSET 0.000000 -2.449906 4.627600 
				}
			}
		}
	}
	JOINT rThigh
	{
		OFFSET -4.983750 -1.633274 1.361059 
		CHANNELS 3 Xrotation Zrotation Yrotation
		JOINT rShin
		{
			OFFSET 2.041588 -20.007561 0.000000 
			CHANNELS 3 Xrotation Zrotation Yrotation
			JOINT rFoot
			{
				OFFSET 0.000000 -19.190928 -1.224953 
				CHANNELS 3 Xrotation Yrotation Zrotation
				End Site
				{
					OFFSET 0.000000 -2.449906 4.627600 
				}
			}
		}
	}
}
MOTION
Frames: 11
Frame Time: 0.066668
27.316692 32.505306 -1.154115 0.107565 2.958980 148.854004 -7.912451 7.440916 -2.537409 -3.391051 3.188964 -1.087461 -1.843613 -18.286222 -16.360161 6.188480 10.183700 -10.494700 2.000000 -2.000000 0.000000 -77.281998 16.089100 -137.166000 111.210999 -0.161849 0.146362 0.223314 -0.159399 126.555000 -2.000000 2.000000 0.000000 57.828701 26.066000 144.382004 -93.574600 0.206934 0.116947 -0.076316 -0.071191 -106.619003 -31.102028 21.295536 16.434929 83.157181 -0.683211 4.602196 -39.637611 15.248732 13.695938 -47.436028 -26.442734 -13.818335 63.646484 -0.883196 -4.127658 -21.602980 5.308914 -0.293809 
27.888987 32.062572 -1.213467 -0.596377 2.724460 149.044006 -7.833000 7.624708 -2.863959 -3.357000 3.267732 -1.227411 -1.442199 -18.401272 -16.858072 6.268380 10.241500 -10.625100 2.000000 -2.000000 0.000000 -76.351898 16.130600 -135.759003 110.167000 -0.164348 0.147306 0.223694 -0.159355 126.417999 -2.000000 2.000000 0.000000 57.124500 26.556299 143.328003 -91.045403 0.212533 0.117173 -0.073443 -0.066061 -108.719002 -31.890659 23.582460 17.254662 84.747147 -0.807194 4.627076 -40.580341 13.945449 12.958957 -48.533165 -27.759983 -15.959092 66.226479 -0.673249 -4.214085 -24.942041 4.659346 -0.194097 
28.121300 31.905088 -1.173137 -1.388300 2.733570 149.923996 -7.735980 7.824775 -2.700488 -3.315420 3.353475 -1.157352 -2.840649 -18.971693 -17.002073 5.863150 10.449900 -10.885100 2.000000 -2.000000 0.000000 -75.533203 17.115900 -136.367004 111.084000 -0.162152 0.146479 0.220731 -0.159673 127.482002 -2.000000 2.000000 0.000000 54.866402 25.082500 142.914993 -90.351997 0.214069 0.117191 -0.074903 -0.068722 -107.635002 -33.706928 23.806213 15.760938 85.641220 -0.911204 4.634614 -39.952522 14.564408 13.227328 -49.232090 -27.187048 -15.239734 66.876007 -0.594216 -4.269035 -24.624331 2.643369 -1.045033 
27.432402 32.225861 -1.091391 -1.748420 1.190850 146.867996 -7.537040 7.153685 -1.697454 -3.230160 3.065865 -0.727480 -4.205930 -18.859337 -17.105288 5.377720 10.629000 -10.842700 2.000000 -2.000000 0.000000 -74.511398 15.284900 -133.421997 109.805000 -0.165217 0.147622 0.220077 -0.159736 127.717003 -2.000000 2.000000 0.000000 52.425098 24.319799 143.421005 -89.893097 0.215104 0.136725 -0.072435 -0.064150 -109.489998 -33.604546 21.015890 16.284176 84.191826 -0.848790 4.656615 -38.504406 17.178802 14.778588 -52.158176 -23.648504 -8.710271 63.935474 -0.766901 -4.181217 -19.754011 0.707281 -1.873501 
25.209791 33.740250 -1.309431 -2.669410 -2.887490 137.244003 -7.441700 5.824938 -1.172631 -3.189300 2.496402 -0.502556 -7.023204 -16.798384 -15.467424 4.383190 10.350500 -9.641450 2.000000 -2.000000 0.000000 -76.173599 8.649080 -130.384003 106.171997 -0.174049 0.150491 0.218906 -0.159841 128.136993 -2.000000 2.000000 0.000000 49.456200 27.201700 147.854996 -89.063004 0.217085 0.136707 -0.074186 -0.067431 -108.162003 -32.772644 13.601730 16.929487 78.167236 -0.351799 4.574956 144.455933 158.803040 196.168732 -55.747196 -17.141764 0.299491 52.479191 -1.459589 -3.704044 -9.104962 3.258884 -1.581236 
22.280409 35.320091 -2.159753 -1.576400 -7.614340 119.700996 -8.526188 5.555620 -0.026090 -3.654081 2.380980 -0.011182 -9.136899 -11.960674 -11.459791 3.449650 9.287700 -6.955780 2.000000 -2.000000 0.000000 -79.610298 -0.940953 -130.496994 101.749001 -0.185022 0.153220 0.207656 -0.160418 132.160004 -2.000000 2.000000 0.000000 45.036598 34.471901 150.395004 -82.881401 0.231792 0.135670 -0.072930 -0.065095 -109.109001 -30.735043 5.530576 14.110462 71.045441 0.225534 4.392080 -31.326834 21.965528 14.013795 -59.743134 -12.223037 -6.872131 42.879055 -1.641664 -3.357786 -2.957652 15.326078 -0.683992 
19.927237 35.688778 -3.255389 1.656930 -8.043560 102.873001 -8.800883 3.745245 2.097655 -3.771807 1.605105 0.898995 -7.824030 -7.308966 -7.401161 3.360060 7.764400 -4.413480 2.000000 -2.000000 0.000000 -84.582802 -22.834600 -123.007004 99.746597 -0.190051 0.154175 0.182572 -0.168618 141.145004 -2.000000 2.000000 0.000000 44.017300 40.698002 152.520004 -70.391197 0.260731 0.128794 -0.068980 -0.057074 -112.303001 -27.833879 -1.045454 10.006430 67.404495 0.547284 4.251928 -32.846397 21.537128 13.713869 -60.381371 -10.189937 -16.399570 71.116776 0.466714 -4.762331 -12.733078 20.505302 4.654796 
18.655542 36.209583 -4.046952 1.666280 -7.916620 92.816803 -8.702973 2.214563 0.889304 -3.729846 0.949099 0.381131 -5.957204 -2.401838 -3.258352 3.692770 6.035610 -1.585380 2.000000 -2.000000 0.000000 -112.749001 -54.238998 -84.125397 115.976997 -0.150687 0.141485 0.070712 -0.087677 -170.046997 -2.000000 2.000000 0.000000 -125.877998 128.955994 -7.569500 -57.939999 0.287420 0.115871 -0.055810 -0.011474 -129.313995 -26.494272 -3.752304 6.485509 63.932232 0.799075 4.123116 -33.741917 23.001173 14.525476 -51.943176 -11.686663 -18.461973 91.851097 2.315262 -5.094423 -18.608051 5.539595 1.572763 
18.818497 36.822308 -4.400424 -0.354130 -6.904170 77.825500 -10.168598 2.811060 1.773245 -4.357971 1.204740 0.759962 -2.288229 2.084709 -0.700589 4.867970 5.124540 1.063500 2.000000 -2.000000 0.000000 -148.643997 -64.107803 -42.056599 118.028000 -0.146016 0.139104 0.046568 -0.024840 -145.828003 -2.000000 2.000000 0.000000 65.740898 50.223598 -149.447006 -69.932198 0.261761 0.128422 -0.078992 0.067360 -161.746002 -27.952147 1.684828 5.728620 74.886505 -0.007080 4.449498 -20.377037 16.122528 5.397807 -35.287380 -5.537214 -13.164139 80.016319 0.592459 -4.656521 -12.056854 7.006001 0.626236 
19.748306 37.005592 -4.423422 -2.791380 -8.076470 61.348400 -11.401439 3.508841 3.895402 -4.886331 1.503789 1.669458 2.694158 6.439969 2.673215 6.403200 4.375970 3.845400 2.000000 -2.000000 0.000000 78.514900 -102.541000 71.118202 112.324997 -0.159206 0.145306 0.061761 0.062373 -110.203003 -2.000000 2.000000 0.000000 75.132103 37.981899 -130.397003 -88.613800 0.218156 0.136685 179.886993 179.876007 -7.615020 -36.447628 14.546131 6.595620 88.744247 -1.369514 4.729543 -13.015096 4.856894 0.485728 -23.043301 0.783610 -10.178286 59.766743 -1.242764 -3.925883 -37.047935 4.571468 1.767719 
21.023573 36.964714 -4.416897 -2.890720 -8.173320 46.788200 -10.810388 5.235314 6.083993 -4.633023 2.243706 2.607426 4.898334 8.691522 10.753370 7.524860 1.639960 6.049080 2.000000 -2.000000 0.000000 -40.964100 -47.246799 163.173004 108.233002 -0.169017 0.148932 0.069330 -0.067584 -161.834000 -2.000000 2.000000 0.000000 73.669601 12.380500 -138.697998 -100.615997 0.191462 0.115022 -0.183979 0.167207 144.171997 -40.312088 24.796383 9.443221 72.157791 0.261409 4.365904 -22.103392 7.587521 2.153488 -23.950199 1.779046 -5.607783 60.120331 -1.211361 -3.943832 -36.016827 8.428447 4.849104 
